<?xml version="1.0" encoding="UTF-8"?>
<svg version="1.1" xmlns="http://www.w3.org/2000/svg" width="1024" height="1024">
<path d="M0 0 C337.92 0 675.84 0 1024 0 C1024 337.92 1024 675.84 1024 1024 C686.08 1024 348.16 1024 0 1024 C0 686.08 0 348.16 0 0 Z " fill="#0F151A" transform="translate(0,0)"/>
<path d="M0 0 C3.52443327 0.75207758 7.01936111 1.60364179 10.515625 2.4765625 C11.51521744 2.72231522 12.51480988 2.96806793 13.54469299 3.2212677 C16.78090332 4.01809566 20.01545924 4.82142423 23.25 5.625 C25.50341279 6.18142164 27.75691267 6.73749067 30.01049805 7.29321289 C36.34185654 8.85602365 42.67120518 10.42684444 49 12 C50.39859127 12.34720419 51.79719018 12.6943776 53.19580078 13.04150391 C58.56475064 14.37553255 63.93158806 15.71772486 69.296875 17.06640625 C75.49281646 18.62385139 81.69143324 20.17039075 87.890625 21.71484375 C136.05972139 33.72024206 184.17609042 45.93164899 232.25 58.3125 C232.95481758 58.49396072 233.65963516 58.67542145 234.38581085 58.86238098 C264.29659966 66.5633112 264.29659966 66.5633112 277 70 C275.19970487 73.86138308 272.71886212 76.67954941 269.8125 79.75 C268.8066693 80.83014996 267.80145959 81.91087851 266.796875 82.9921875 C266.31154297 83.51264648 265.82621094 84.03310547 265.32617188 84.56933594 C261.53937253 88.65450607 257.9329661 92.89919161 254.328125 97.14453125 C248.77933276 103.66848253 243.13848837 110.06221199 237.28808594 116.31738281 C234.24378242 119.59294973 231.36033232 122.94531514 228.5625 126.4375 C223.98085598 132.14577779 219.01197564 137.44296038 214.0078125 142.77734375 C211.1577443 145.81794331 208.39511189 148.92348424 205.671875 152.078125 C203.64241927 154.41105074 201.572353 156.70511245 199.5 159 C196.24223507 162.60995573 193.02286993 166.2488779 189.83203125 169.91796875 C186.9011905 173.24875365 183.90771052 176.5228716 180.91796875 179.80078125 C178.87480508 182.04822519 178.87480508 182.04822519 177 185 C168.54161613 182.88285487 160.44323968 180.08331704 152.28125 177.03125 C150.96719804 176.54402211 149.65294339 176.05734054 148.33850098 175.57116699 C145.59859593 174.55753491 142.85939926 173.54202109 140.12060547 172.52539062 C134.18806439 170.3260948 128.24346553 168.1599124 122.29876709 165.9937439 C119.67101743 165.03607677 117.04373862 164.07712137 114.41644287 163.11820984 C111.11106764 161.91185013 107.80552287 160.70595511 104.5 159.5 C89.24231328 153.93353258 73.98493661 148.3662109 58.73448181 142.779953 C56.87004058 142.09710909 55.00539791 141.41481527 53.14074707 140.73254395 C45.66015601 137.99075096 38.19997361 135.19880909 30.75 132.375 C21.99387593 129.07553521 13.18769445 125.96527923 4.33374023 122.93920898 C-9.36778218 118.22921724 -22.97173152 113.24580835 -36.58618164 108.29101562 C-47.40360997 104.35894277 -58.23754732 100.48887393 -69.12931824 96.76670837 C-74.39336673 94.95597056 -79.57785676 93.01645384 -84.73016357 90.90777588 C-88.58511615 89.36606436 -92.51134146 88.03480486 -96.4375 86.6875 C-103.51508244 84.22886504 -110.58220902 81.74427318 -117.625 79.1875 C-118.84207642 78.75280396 -118.84207642 78.75280396 -120.08374023 78.30932617 C-125.76830185 76.23169815 -125.76830185 76.23169815 -128 74 C-118.8046875 68.1484375 -109.609375 62.296875 -100.4140625 56.4453125 C-99.51921143 55.87578857 -98.62436035 55.30626465 -97.70239258 54.71948242 C-95.88478889 53.56297481 -94.06691303 52.40689485 -92.2487793 51.2512207 C-87.69462783 48.35568742 -83.14519693 45.45325895 -78.60546875 42.53515625 C-68.05679654 35.76639315 -57.41237773 29.19312985 -46.64672852 22.77490234 C-38.60039898 17.97476643 -30.60190646 13.10175935 -22.625 8.1875 C-21.50706055 7.49930176 -20.38912109 6.81110352 -19.23730469 6.10205078 C-7.13014255 -1.36547791 -7.13014255 -1.36547791 0 0 Z " fill="#54C334" transform="translate(330,669)"/>
<path d="M0 0 C0.33 0 0.66 0 1 0 C1.23413856 21.1408811 1.41020501 42.28154685 1.51812172 63.42346382 C1.56957313 73.24124758 1.63965306 83.05822334 1.75439453 92.87548828 C1.85441622 101.43745012 1.91866396 109.99882653 1.94088495 118.56135643 C1.95386449 123.09085804 1.98412051 127.61868566 2.05730057 132.14764786 C2.12578744 136.42126613 2.14599756 140.69254076 2.13107681 144.96665573 C2.13380134 146.52508593 2.15333712 148.08360423 2.19205475 149.64155579 C2.45851948 160.92882249 -0.37708234 167.86173943 -7.65351129 176.40620875 C-9.94319062 179.11642151 -12.0815568 181.9423388 -14.25 184.75 C-15.16818231 185.91204917 -16.08819827 187.07265748 -17.01171875 188.23046875 C-20.39197384 192.4845158 -23.72841505 196.77222465 -27.0625 201.0625 C-27.6615918 201.83303711 -28.26068359 202.60357422 -28.87792969 203.39746094 C-33.06856529 208.79132561 -37.23681078 214.20181372 -41.39453125 219.62109375 C-43.31815671 222.12218182 -45.25587965 224.6118566 -47.19921875 227.09765625 C-54.09887275 235.92623524 -60.89093026 244.82385008 -67.59326172 253.80322266 C-72.129982 259.86997409 -76.7632551 265.84970689 -81.46484375 271.7890625 C-86.73491007 278.44746883 -91.87207525 285.21054041 -97.0234375 291.9609375 C-103.30308555 300.18801658 -109.61768054 308.38581342 -115.97949219 316.54956055 C-119.33430709 320.85534292 -122.67640119 325.17007422 -126 329.5 C-131.68452374 336.90288467 -137.42036757 344.26561871 -143.15478516 351.62988281 C-146.25052312 355.60625542 -149.34389338 359.58446915 -152.4375 363.5625 C-153.54035349 364.98047738 -154.64321772 366.39844641 -155.74609375 367.81640625 C-156.278396 368.500979 -156.81069824 369.18555176 -157.35913086 369.89086914 C-158.48943805 371.34373684 -159.62050504 372.79601364 -160.75219727 374.24780273 C-164.55062168 379.12315111 -168.31707305 384.02136674 -172.0625 388.9375 C-177.32629625 395.83462239 -182.63725905 402.69367104 -187.9699707 409.53759766 C-193.00765073 416.00404184 -198.01015939 422.4965744 -203 429 C-204.58279677 431.06291179 -206.1661438 433.1254015 -207.75 435.1875 C-208.35593994 435.97640625 -208.35593994 435.97640625 -208.97412109 436.78125 C-211.41116164 439.94930887 -213.86077218 443.1071849 -216.3203125 446.2578125 C-221.94233375 453.46014928 -227.53977179 460.67391917 -233 468 C-239.0193625 476.07628081 -245.20912927 484.01515603 -251.40722656 491.95458984 C-253.61772877 494.79327584 -255.80982648 497.64559353 -258 500.5 C-262.07270966 505.79991688 -266.15562551 511.09179769 -270.25 516.375 C-270.82878906 517.12458984 -271.40757812 517.87417969 -272.00390625 518.64648438 C-274.69856605 522.11856901 -277.42008989 525.56662595 -280.2265625 528.94921875 C-280.68627441 529.50440186 -281.14598633 530.05958496 -281.61962891 530.6315918 C-284.90679113 533.89026606 -288.5978935 534 -293 534 C-291.41386174 528.37559019 -288.71668291 523.62262467 -285.875 518.5625 C-280.7402141 509.29452842 -275.83003418 499.92866628 -271 490.5 C-266.03969488 480.82484124 -260.98428657 471.22284641 -255.71875 461.70922852 C-250.95867213 453.04738227 -246.49053765 444.24082847 -242 435.4375 C-236.74854404 425.14448944 -231.39711722 414.97420028 -225.546875 405.00537109 C-220.49259541 396.30404797 -215.9615553 387.33996071 -211.38595581 378.38128662 C-207.03220124 369.85782501 -202.63623397 361.37461141 -198 353 C-191.02015912 340.37631293 -184.50293832 327.51465086 -177.92127991 314.6807251 C-175.20850344 309.39526613 -172.46370519 304.12745126 -169.6875 298.875 C-169.11249756 297.78699097 -169.11249756 297.78699097 -168.52587891 296.67700195 C-167.75537566 295.21923587 -166.98486784 293.7614722 -166.21435547 292.30371094 C-159.37008096 279.31967912 -152.6256925 266.28282794 -145.875 253.25 C-140.29247718 242.47719905 -134.67762118 231.72296599 -129 221 C-128.3709164 219.81088011 -127.74184847 218.62175194 -127.11279297 217.43261719 C-112.99238979 190.74708152 -112.99238979 190.74708152 -106.0625 178.125 C-101.05745919 169.00460678 -96.17384565 159.82248697 -91.3125 150.625 C-90.93108856 149.90342712 -90.54967712 149.18185425 -90.15670776 148.43841553 C-88.60296316 145.49851389 -87.04957308 142.55842525 -85.49656677 139.61813354 C-81.38017164 131.82479735 -77.25663601 124.03526725 -73.125 116.25 C-72.77020569 115.58132904 -72.41541138 114.91265808 -72.04986572 114.22372437 C-67.18078126 105.05160151 -62.25908637 95.91088715 -57.24243164 86.81835938 C-54.76437745 82.30893887 -52.36290418 77.77473963 -50.0546875 73.17578125 C-44.12683247 61.39667851 -37.70523401 50.69491456 -29.69287109 40.22119141 C-26.72639224 36.32891788 -23.83778374 32.37918757 -20.9375 28.4375 C-20.35983887 27.65673096 -19.78217773 26.87596191 -19.18701172 26.0715332 C-14.60394618 19.86655952 -10.13651129 13.58526602 -5.73022461 7.25366211 C-2.20236108 2.20236108 -2.20236108 2.20236108 0 0 Z " fill="#0A6113" transform="translate(832,402)"/>
<path d="M0 0 C15.36834139 12.10220853 26.18414533 29.47842985 30.6171875 48.52734375 C30.79306396 49.28112305 30.96894043 50.03490234 31.15014648 50.81152344 C32.71017595 58.26137511 32.9570369 65.6193207 32.93286133 73.20507812 C32.92971259 75.26096293 32.95321235 77.31538661 32.97851562 79.37109375 C33.09350126 103.68483267 25.09661308 127.43063083 8.06591797 145.10205078 C-8.73463954 161.63080959 -31.52333305 168.78883934 -54.66699219 168.77612305 C-76.4705797 168.44967985 -96.64529602 159.38320664 -112.3828125 144.52734375 C-129.34476941 126.40757408 -135.77087901 103.28688429 -135.69848633 78.99511719 C-135.69533693 76.79441203 -135.71883295 74.59507041 -135.74414062 72.39453125 C-135.84919812 49.03876345 -128.92856815 27.26849237 -113.3828125 9.52734375 C-112.78984375 8.83898437 -112.196875 8.150625 -111.5859375 7.44140625 C-83.5728408 -22.84625813 -32.12479938 -24.09820722 0 0 Z " fill="#F7F8EA" transform="translate(556.3828125,170.47265625)"/>
<path d="M0 0 C9.96125928 0.63910198 19.76826764 2.05344307 29.625 3.5625 C31.35691959 3.82479949 33.08885358 4.08700394 34.82080078 4.34912109 C51.33881991 6.85999862 67.83547657 9.50660139 84.33032227 12.16479492 C96.38119322 14.10642802 108.43309443 16.03017124 120.50927734 17.80908203 C126.07375479 18.64279129 131.51995379 19.7203953 137 21 C128.46281392 31.19719449 119.30746928 40.77291229 109.85913086 50.12158203 C106.98254251 52.97859088 104.17983172 55.83696858 101.5625 58.9375 C97.53953297 63.70126914 93.04038095 68.00902889 88.59204102 72.37084961 C85.48651278 75.43428545 82.4963216 78.53144167 79.65625 81.84375 C74.56698156 87.74592746 68.93098865 93.11275745 63.3828125 98.578125 C57.50598378 104.40136561 51.9551769 110.36717047 46.734375 116.78515625 C46.07953125 117.53667969 45.4246875 118.28820312 44.75 119.0625 C44.10546875 119.83722656 43.4609375 120.61195313 42.796875 121.41015625 C34.48984326 126.1321701 20.25579174 120.3433239 11.25 118.4375 C9.52146206 118.07680026 7.79278052 117.71678809 6.06396484 117.35742188 C2.48118123 116.61200223 -1.10097288 115.86366748 -4.68261719 115.11279297 C-12.90943881 113.38926132 -21.14168184 111.69218451 -29.375 110 C-30.16862946 109.83663147 -30.96225891 109.67326294 -31.77993774 109.50494385 C-45.52982042 106.67687122 -59.30184038 103.97021709 -73.08312988 101.29986572 C-83.8641687 99.21058934 -94.6296089 97.07084135 -105.37255859 94.79223633 C-114.08533605 92.95475864 -122.8297215 91.28708578 -131.57537842 89.61520386 C-140.90208597 87.82929005 -150.18824779 85.909688 -159.45410156 83.83081055 C-168.38526423 81.85365244 -177.38011837 80.24269726 -186.39550781 78.69897461 C-187.48831055 78.5056958 -188.58111328 78.31241699 -189.70703125 78.11328125 C-190.6813208 77.94610596 -191.65561035 77.77893066 -192.65942383 77.60668945 C-195 77 -195 77 -197 75 C-176.94613779 61.49218403 -156.67417529 48.37192629 -135.97460938 35.8737793 C-129.41109713 31.89736574 -122.99236496 27.75749934 -116.640625 23.453125 C-112.4240233 20.59671739 -108.15167698 17.8278529 -103.875 15.0625 C-103.16359863 14.60141846 -102.45219727 14.14033691 -101.71923828 13.6652832 C-99.81721068 12.43650143 -97.90966838 11.21685969 -96 10 C-95.05253906 9.39027344 -94.10507812 8.78054688 -93.12890625 8.15234375 C-91 7 -91 7 -89.0625 7.5 C-87.33635413 8.75537882 -85.68791044 10.11667196 -84.0625 11.5 C-79.51226814 15.21447499 -76.00478218 16.24638677 -70.17504883 16.29052734 C-69.02647903 16.30328705 -67.87790924 16.31604675 -66.6945343 16.32919312 C-65.46115829 16.33141876 -64.22778229 16.33364441 -62.95703125 16.3359375 C-61.67825607 16.3425943 -60.3994809 16.3492511 -59.08195496 16.35610962 C-56.37613554 16.36806375 -53.67044356 16.37179266 -50.96459961 16.37060547 C-47.52278582 16.37040301 -44.08180453 16.39763602 -40.64018726 16.43214989 C-37.3291254 16.45995244 -34.01820797 16.45857337 -30.70703125 16.4609375 C-28.87214897 16.48249405 -28.87214897 16.48249405 -27.00019836 16.50448608 C-19.22817274 16.46341245 -11.5551568 15.81041563 -5.35432434 10.62338257 C-2.48560946 7.44952514 -1.07261276 4.09543053 0 0 Z " fill="#54C334" transform="translate(572,559)"/>
<path d="M0 0 C1.31016083 0.00444122 2.62032166 0.00888245 3.97018433 0.01345825 C5.07079854 0.01309665 5.07079854 0.01309665 6.19364738 0.01272774 C8.57354651 0.01422294 10.95313406 0.02946489 13.33297729 0.04519653 C14.8003423 0.04813633 16.26770939 0.05017716 17.7350769 0.05130005 C23.18180481 0.06179471 28.62848785 0.08971703 34.07516479 0.11550903 C46.24391479 0.15675903 58.41266479 0.19800903 70.95016479 0.24050903 C70.95016479 37.53050903 70.95016479 74.82050903 70.95016479 113.24050903 C78.54016479 113.24050903 86.13016479 113.24050903 93.95016479 113.24050903 C93.95016479 129.08050903 93.95016479 144.92050903 93.95016479 161.24050903 C86.36016479 161.24050903 78.77016479 161.24050903 70.95016479 161.24050903 C70.95016479 173.45050903 70.95016479 185.66050903 70.95016479 198.24050903 C53.13016479 198.24050903 35.31016479 198.24050903 16.95016479 198.24050903 C16.95016479 186.03050903 16.95016479 173.82050903 16.95016479 161.24050903 C-14.39983521 161.24050903 -45.74983521 161.24050903 -78.04983521 161.24050903 C-81.1506845 123.06798498 -78.59290095 105.58079581 -55.29463196 76.27746582 C-48.07933837 67.18462158 -41.80468694 57.54818677 -35.52590942 47.79556274 C-32.53984269 43.16975863 -29.50724388 38.57481061 -26.47561646 33.97879028 C-25.91436066 33.12626678 -25.35310486 32.27374329 -24.77484131 31.39538574 C-20.18855208 24.43360552 -15.55611212 17.50533247 -10.86233521 10.61550903 C-10.27468384 9.75143433 -9.68703247 8.88735962 -9.08157349 7.99710083 C-3.80159494 0.29979257 -3.80159494 0.29979257 0 0 Z " fill="#F7F8EA" transform="translate(481.0498352050781,357.7594909667969)"/>
<path d="M0 0 C1.19822388 0.44484741 1.19822388 0.44484741 2.4206543 0.89868164 C23.19013076 8.61349477 23.19013076 8.61349477 44.17456055 15.71704102 C48.97334376 17.27064771 53.63349962 19.0356811 58.30566406 20.93481445 C63.48229508 22.98135678 68.74816152 24.78231147 74 26.625 C76.74287364 27.59181242 79.48485031 28.56114925 82.2265625 29.53125 C82.97354401 29.79551788 83.72052551 30.05978577 84.49014282 30.33206177 C95.46669886 34.22127914 106.41947596 38.17702827 117.375 42.125 C118.41011719 42.49796204 119.44523437 42.87092407 120.51171875 43.25518799 C124.59802631 44.72758909 128.68429542 46.20009582 132.77023315 47.67352295 C137.95396618 49.5427242 143.13850966 51.40961869 148.32470703 53.27197266 C160.97807236 57.81709365 173.61285049 62.40918495 186.22851562 67.05789185 C206.45794459 74.51071596 226.70283838 81.92109105 246.95375824 89.31526947 C248.96470418 90.04961095 250.97556068 90.78419681 252.98638916 91.51885986 C256.19869611 92.69243328 259.41120512 93.86545177 262.62390518 95.03794861 C264.47913546 95.71504144 266.33427953 96.39237045 268.18942261 97.06970215 C274.25158346 99.28008392 280.31841623 101.47619548 286.39453125 103.64794922 C287.56113281 104.06531845 288.72773438 104.48268768 289.9296875 104.91270447 C292.13579143 105.70075652 294.34278374 106.48632736 296.55078125 107.26905823 C297.52015625 107.61524704 298.48953125 107.96143585 299.48828125 108.31811523 C300.76505737 108.77141457 300.76505737 108.77141457 302.06762695 109.23387146 C304 110 304 110 305 111 C305.09443335 113.30053835 305.11742128 115.60402173 305.11352539 117.90649414 C305.11367142 118.62840439 305.11381744 119.35031464 305.1139679 120.09410095 C305.11326869 122.49114947 305.10547595 124.88812123 305.09765625 127.28515625 C305.0957921 128.94282489 305.09436818 130.60049407 305.09336853 132.25816345 C305.08954312 136.62954214 305.07971265 141.00088781 305.06866455 145.37225342 C305.05845092 149.82954461 305.05387101 154.28684111 305.04882812 158.74414062 C305.0380904 167.49610893 305.02101371 176.24805036 305 185 C302.93312521 184.21213451 300.8669325 183.4224795 298.80102539 182.63208008 C297.65034073 182.19253494 296.49965607 181.75298981 295.31410217 181.30012512 C290.94365153 179.58559359 286.69173756 177.66910719 282.4375 175.6875 C273.32453337 171.49454648 264.17190198 167.39821568 254.99990845 163.3366394 C242.55595121 157.82535226 230.13366382 152.27051047 217.75 146.625 C201.38485788 139.16544876 184.99020441 131.77263835 168.58305359 124.40596008 C164.41605086 122.53499814 160.24965433 120.66271868 156.08496094 118.78662109 C134.92255804 109.25362149 113.68470771 99.92885372 92.32666016 90.84277344 C85.77406729 88.05395556 79.2302194 85.24472818 72.68557739 82.43731689 C70.51186557 81.50508872 68.3378925 80.5734727 66.16381836 79.64208984 C59.43373585 76.75885728 52.70443004 73.8738466 45.9776001 70.98303223 C42.85928458 69.64307496 39.74056889 68.30405049 36.62182617 66.96508789 C35.15987669 66.3371311 33.69811524 65.70873631 32.23657227 65.07983398 C23.62463678 61.37426372 14.99263129 57.73086852 6.29891968 54.22045898 C1.10775517 52.10775517 1.10775517 52.10775517 0 51 C-0.09333705 49.40389018 -0.11745372 47.80366572 -0.11352539 46.20483398 C-0.11344986 45.18385117 -0.11337433 44.16286835 -0.11329651 43.11094666 C-0.10813522 42.0005452 -0.10297394 40.89014374 -0.09765625 39.74609375 C-0.0962413 38.61551041 -0.09482635 37.48492706 -0.09336853 36.32008362 C-0.08775019 32.69252935 -0.07519458 29.06503576 -0.0625 25.4375 C-0.05748736 22.98502693 -0.05292405 20.5325529 -0.04882812 18.08007812 C-0.0377748 12.05336455 -0.02101884 6.02668661 0 0 Z " fill="#147115" transform="translate(201,743)"/>
<path d="M0 0 C96.15662651 0 96.15662651 0 113.0625 15.9453125 C114.83430673 17.89277248 116.43531267 19.8835545 118 22 C118.44859375 22.58007812 118.8971875 23.16015625 119.359375 23.7578125 C129.0015317 37.50681372 130.91939887 56.35969001 128.3515625 72.5859375 C125.38035066 88.59586537 118.6572112 101.40856189 105.1484375 111.03125 C95.15276027 117.25547118 84.68853771 119.89769056 73.1875 121.75 C72.41857422 121.87793945 71.64964844 122.00587891 70.85742188 122.13769531 C62.74237994 123.32127785 55.45785693 123 47 123 C47 140.82 47 158.64 47 177 C31.49 177 15.98 177 0 177 C0 118.59 0 60.18 0 0 Z " fill="#F7F7EA" transform="translate(606,158)"/>
<path d="M0 0 C33.99 0 67.98 0 103 0 C103 14.19 103 28.38 103 43 C84.19 43 65.38 43 46 43 C46 51.91 46 60.82 46 70 C63.16 70 80.32 70 98 70 C98 82.87 98 95.74 98 109 C80.84 109 63.68 109 46 109 C46 117.58 46 126.16 46 135 C66.46 135 86.92 135 108 135 C108 148.86 108 162.72 108 177 C72.36 177 36.72 177 0 177 C0 118.59 0 60.18 0 0 Z " fill="#F7F8EA" transform="translate(750,158)"/>
<path d="M0 0 C1.3303125 1.0828125 1.3303125 1.0828125 2.6875 2.1875 C2.10178684 7.33653059 0.91786407 11.98146697 -0.81640625 16.87109375 C-1.0591478 17.57146255 -1.30188934 18.27183136 -1.55198669 18.99342346 C-2.32038725 21.20607023 -3.09752596 23.41552727 -3.875 25.625 C-4.40097378 27.13456256 -4.92637007 28.64432647 -5.45117188 30.15429688 C-6.73161873 33.83439197 -8.01990561 37.51165492 -9.3125 41.1875 C-9.87533691 40.9608667 -10.43817383 40.7342334 -11.01806641 40.50073242 C-34.57083141 30.33313995 -34.57083141 30.33313995 -59.32421875 32.1484375 C-62.6035182 33.86217749 -63.83784674 35.85350134 -65.3125 39.1875 C-65.93899562 44.28896433 -65.31779421 47.06824449 -62.3125 51.1875 C-53.31628624 57.20048026 -42.20523678 60.34092143 -32.08984375 63.95507812 C-15.89534546 69.90565464 -3.10750038 77.20826844 4.49609375 93.1953125 C10.56758842 108.44372207 8.44316701 123.96613514 2.625 138.91796875 C-3.11576845 151.77489808 -14.65156964 162.05269547 -27.703125 167.0546875 C-56.3719568 176.05248103 -86.3316957 173.20865889 -113.25 159.875 C-114.94294261 158.9894951 -116.63273888 158.09776161 -118.3125 157.1875 C-116.00299368 148.14818031 -113.10667637 139.33299164 -110.125 130.5 C-109.65661798 129.10491271 -109.18851717 127.70973097 -108.72070312 126.31445312 C-107.58786759 122.93770966 -106.45125892 119.56225118 -105.3125 116.1875 C-101.19286292 117.52428165 -97.43430768 119.05897472 -93.5625 121 C-80.66875737 126.97693992 -64.93185407 132.46743778 -50.7109375 128.453125 C-47.60528234 127.07534344 -45.49357347 125.40252474 -43.3125 122.8125 C-42.08831574 119.59901631 -41.82438499 117.60430509 -42.3125 114.1875 C-45.48347584 107.12487199 -52.04956467 104.83487026 -58.91601562 102.18139648 C-61.56200506 101.24506569 -64.21705555 100.33928556 -66.875 99.4375 C-83.92240941 93.40913655 -101.77922585 86.14899302 -110.12890625 68.9765625 C-116.27081707 54.50354491 -116.35919505 38.51210726 -110.86328125 23.78515625 C-104.77265504 9.6555171 -95.03161096 -0.19072178 -80.87890625 -6.29296875 C-56.38764447 -15.44030749 -22.24856675 -15.68922834 0 0 Z " fill="#F7F7EA" transform="translate(283.3125,166.8125)"/>
<path d="M0 0 C5.12131302 1.75856358 10.40600698 2.54653906 15.73046875 3.4609375 C24.82699642 5.16555746 33.87599767 7.05154497 42.91796875 9.0234375 C52.07986605 11.0199201 61.2528602 12.85705221 70.48046875 14.5234375 C80.76796632 16.38230774 90.99160606 18.45704123 101.20117188 20.70507812 C119.36724785 24.68837459 137.64324201 28.16237991 155.8972168 31.71533203 C175.97052089 35.62308092 196.00886122 39.62357676 215.98046875 44.0234375 C215.76556584 51.29076721 215.54032084 58.55769813 215.30179024 65.82429314 C215.19136265 69.19832116 215.08452897 72.57238395 214.98583984 75.94677734 C214.87066767 79.82424065 214.74321434 83.70113183 214.61328125 87.578125 C214.57985626 88.79273407 214.54643127 90.00734314 214.51199341 91.25875854 C214.47210297 92.37976959 214.43221252 93.50078064 214.39111328 94.65576172 C214.36002472 95.64615448 214.32893616 96.63654724 214.29690552 97.6569519 C213.98046875 100.0234375 213.98046875 100.0234375 211.98046875 102.0234375 C210.13006592 101.82566833 210.13006592 101.82566833 207.83496094 101.18530273 C206.96325256 100.94932877 206.09154419 100.7133548 205.19342041 100.4702301 C204.23111511 100.19774948 203.26880981 99.92526886 202.27734375 99.64453125 C200.16365588 99.06925094 198.04971018 98.49491733 195.93554688 97.92138672 C194.23845581 97.45572296 194.23845581 97.45572296 192.50708008 96.98065186 C186.47691098 95.34390658 180.42319881 93.79935508 174.37109375 92.24609375 C172.41312105 91.74163443 170.45530353 91.23657583 168.49749184 90.73149204 C165.07537265 89.84877942 161.6529083 88.96740702 158.23046875 88.0859375 C157.52079201 87.90314114 156.81111526 87.72034477 156.07993317 87.53200912 C109.99326654 75.66207634 63.86690021 63.95430429 17.68896484 52.44415283 C6.29661783 49.60452188 -5.09353936 46.75614724 -16.4836731 43.90765381 C-22.36533869 42.43681861 -28.24712852 40.96648044 -34.12890625 39.49609375 C-36.40755268 38.92643468 -38.68619852 38.35677324 -40.96484375 37.78710938 C-42.08149414 37.50794678 -43.19814453 37.22878418 -44.34863281 36.94116211 C-53.57226562 34.63525391 -62.79589844 32.3293457 -72.01953125 30.0234375 C-67.73581269 26.54192864 -63.29297835 23.62996094 -58.5546875 20.82202148 C-54.16031385 18.15612054 -50.01962264 15.30254701 -45.9617157 12.15568542 C-30.1263048 -0.10150934 -20.11395128 -7.57294294 0 0 Z " fill="#147115" transform="translate(395.01953125,637.9765625)"/>
<path d="M0 0 C15.51 0 31.02 0 47 0 C47 43.56 47 87.12 47 132 C66.8 132 86.6 132 107 132 C107 146.52 107 161.04 107 176 C71.69 176 36.38 176 0 176 C0 117.92 0 59.84 0 0 Z " fill="#F7F8EA" transform="translate(308,159)"/>
<path d="M0 0 C2.65849154 0.05441423 5.31670192 0.10412375 7.9753418 0.1484375 C15.88333561 0.29630234 23.78367714 0.57781991 31.6875 0.875 C34.08461692 0.95854026 36.48175186 1.04156543 38.87890625 1.12402344 C51.48981094 1.56952936 64.08997263 2.14375024 76.6875 2.875 C75.76055607 3.98247513 74.82977988 5.08674323 73.89746094 6.18969727 C73.12060944 7.11263329 73.12060944 7.11263329 72.32806396 8.05421448 C70.75455304 9.80058095 69.11946163 11.32125782 67.328125 12.83984375 C59.52072182 19.52314855 59.52072182 19.52314855 56.51074219 29.00805664 C56.44129701 30.95599373 56.49069147 32.90710406 56.546875 34.85546875 C56.07943634 39.83837726 52.73120219 42.57896514 49.37255859 46.0222168 C46.94662876 48.59968453 44.83657516 51.22459317 42.7063446 54.03913879 C26.72137794 74.90040763 26.72137794 74.90040763 15.45703125 76.89599609 C6.47453513 77.70993784 -2.60438056 75.88304168 -11.42010498 74.32192993 C-22.66737759 72.35138189 -34.00363998 71.60425484 -45.37869263 70.73153687 C-51.57251022 70.24540198 -57.76064361 69.69673185 -63.94921875 69.1484375 C-65.15634018 69.04216537 -66.36346161 68.93589325 -67.60716248 68.82640076 C-85.51536709 67.2458855 -103.41546563 65.57693608 -121.3125 63.875 C-118.93841385 61.21701861 -116.49136206 59.76762385 -113.32421875 58.16015625 C-112.31810547 57.64453125 -111.31199219 57.12890625 -110.27539062 56.59765625 C-109.19451172 56.04980469 -108.11363281 55.50195312 -107 54.9375 C-98.38122742 50.51556445 -89.80826264 46.02931554 -81.3125 41.375 C-80.43682373 40.89554932 -79.56114746 40.41609863 -78.65893555 39.92211914 C-73.69577636 37.1980926 -73.69577636 37.1980926 -68.76171875 34.421875 C-67.54935547 33.73351562 -67.54935547 33.73351562 -66.3125 33.03125 C-65.590625 32.61681641 -64.86875 32.20238281 -64.125 31.77539062 C-62.3125 30.875 -62.3125 30.875 -60.3125 30.875 C-60.37050781 29.82699219 -60.42851563 28.77898437 -60.48828125 27.69921875 C-60.53518131 26.320357 -60.58068122 24.94144713 -60.625 23.5625 C-60.66689453 22.87220703 -60.70878906 22.18191406 -60.75195312 21.47070312 C-60.80078125 19.44921875 -60.80078125 19.44921875 -60.3125 15.875 C-58.1035614 14.33206177 -58.1035614 14.33206177 -55.3125 12.875 C-54.4910701 12.40367645 -53.6696402 11.93235291 -52.82331848 11.44674683 C-34.86013212 1.57978545 -20.28044198 -0.76270476 0 0 Z " fill="#147015" transform="translate(750.3125,377.125)"/>
<path d="M0 0 C0.78783937 0.05676942 1.57567875 0.11353884 2.38739204 0.17202854 C4.98826452 0.36812674 7.58528704 0.59295769 10.18310547 0.82592773 C11.05800377 0.90316448 11.93290207 0.98040123 12.83431244 1.05997849 C19.59917806 1.66808274 26.3558433 2.35108043 33.11279297 3.04077148 C35.28114345 3.25910479 37.44953008 3.47707929 39.61795044 3.69471741 C45.28215974 4.26416355 50.94587759 4.83835643 56.60949707 5.41363525 C62.3251517 5.99337432 68.04125367 6.56866589 73.75732422 7.14428711 C82.17798218 7.99268229 90.59838868 8.8435141 99.01855469 9.69677734 C109.40579998 10.74925139 119.79420569 11.78992359 130.18310547 12.82592773 C128.4081053 16.62718842 125.99272476 19.37541756 123.12060547 22.38842773 C119.47384267 26.28376555 115.96805244 30.22802935 112.62060547 34.38842773 C108.75849583 39.18324722 104.68888082 43.73942558 100.52294922 48.27124023 C98.52475698 50.45290588 96.56161658 52.65604082 94.62060547 54.88842773 C90.53320752 59.58602964 86.39930976 64.24343583 82.18310547 68.82592773 C81.64854736 69.54312988 81.11398926 70.26033203 80.56323242 70.99926758 C77.6719679 73.21820707 75.94153462 73.08582252 72.39505005 72.68936157 C71.60065521 72.57716278 70.80626038 72.46496399 69.98779297 72.34936523 C69.12644745 72.24530365 68.26510193 72.14124207 67.37765503 72.0340271 C64.30931157 71.65517478 61.24677923 71.24080612 58.18310547 70.82592773 C55.7056877 70.50500305 53.22814135 70.18506986 50.75048828 69.8659668 C42.99585887 68.85942353 35.24763342 67.80720344 27.49981689 66.74969482 C23.88674658 66.25717264 20.27319878 65.76818295 16.65966797 65.27905273 C12.38362616 64.70006852 8.10762061 64.12082638 3.83184814 63.53985596 C-10.3809625 61.60919511 -24.59868618 59.71650917 -38.81689453 57.82592773 C-38.81689453 44.62592773 -38.81689453 31.42592773 -38.81689453 17.82592773 C-25.56689453 10.51342773 -25.56689453 10.51342773 -21.40576172 8.22314453 C-20.3194043 7.62155518 -19.23304688 7.01996582 -18.11376953 6.40014648 C-17.00356445 5.78743896 -15.89335938 5.17473145 -14.74951172 4.54345703 C-11.88956013 3.01972954 -11.88956013 3.01972954 -10.12216187 1.20770264 C-6.77879848 -0.79630598 -3.74218494 -0.32700436 0 0 Z " fill="#54C334" transform="translate(635.81689453125,468.174072265625)"/>
<path d="M0 0 C8.44229002 5.61192689 13.43740481 15.11231006 15.77734375 24.78515625 C16.08285156 26.02845703 16.08285156 26.02845703 16.39453125 27.296875 C19.91433012 43.81099982 18.43053138 64.55604182 9.28125 79.17578125 C3.94402412 86.62077994 -3.02414733 92.22608694 -12.22265625 93.78515625 C-22.47195327 94.72897641 -31.48270149 93.17604619 -39.59765625 86.53515625 C-51.19446293 75.34068776 -54.3005234 58.60642208 -54.59765625 43.03515625 C-54.56869052 29.60793041 -50.99369782 14.82576811 -42.22265625 4.41015625 C-30.00166331 -7.46166547 -14.48815678 -7.91883437 0 0 Z " fill="#0B1116" transform="translate(523.22265625,202.21484375)"/>
<path d="M0 0 C15.3346318 1.99007221 30.6677559 3.99161705 46 6 C46.69828415 6.09145798 47.3965683 6.18291595 48.11601257 6.27714539 C57.30528146 7.48085482 66.49420682 8.68714189 75.68252563 9.89808369 C79.53978701 10.40642447 83.39714576 10.9139961 87.25476074 11.41964722 C90.93083772 11.90155713 94.60661116 12.38572007 98.28216934 12.87157059 C99.64954284 13.05193224 101.01702137 13.23149961 102.38460922 13.41022873 C104.26792017 13.65649958 106.15081681 13.90593256 108.03369141 14.15551758 C109.09407623 14.29508377 110.15446106 14.43464996 111.24697876 14.57844543 C113.55427604 14.93174881 115.75177582 15.38206198 118 16 C118.09112881 25.31538988 118.14212553 34.63027479 117.6875 43.9375 C117.62949219 45.20464844 117.57148437 46.47179687 117.51171875 47.77734375 C116.96379187 51.22802832 116.40713194 52.53331692 114 55 C111.92918396 55.2346344 111.92918396 55.2346344 109.54077148 54.86157227 C108.64921356 54.73332062 107.75765564 54.60506897 106.83908081 54.47293091 C105.90218414 54.31686371 104.96528748 54.16079651 104 54 C103.09428253 53.86818329 102.18856506 53.73636658 101.25540161 53.60055542 C98.2817427 53.16376772 95.31502569 52.69243907 92.34765625 52.21484375 C90.67777145 51.94972237 90.67777145 51.94972237 88.97415161 51.679245 C86.58123125 51.29899505 84.18851615 50.91745144 81.79598999 50.534729 C78.01128404 49.92930722 74.22606119 49.32721993 70.44067383 48.72607422 C65.21388221 47.89594507 59.98726167 47.06475089 54.76074219 46.23291016 C43.98496675 44.51938411 33.20632653 42.82417365 22.42697144 41.1333313 C19.28526119 40.64034049 16.14372049 40.14628063 13.00219727 39.65209961 C0.67561413 37.71585084 -11.65835917 35.83799676 -24 34 C-23.505 25.09 -23.505 25.09 -23 16 C-21.659375 15.7525 -20.31875 15.505 -18.9375 15.25 C-10.93849344 13.43204396 -5.68887461 9.78156026 -1 3 C-0.67 2.01 -0.34 1.02 0 0 Z " fill="#147015" transform="translate(596,525)"/>
<path d="M0 0 C0.75676025 0.04106369 1.51352051 0.08212738 2.29321289 0.12443542 C3.91420856 0.21355832 5.53505733 0.30538654 7.15576172 0.3996582 C9.5319326 0.53756727 11.90842391 0.6671056 14.28515625 0.79492188 C24.61709709 1.3651276 34.9302949 2.11973936 45.24594116 2.92985535 C58.90743882 3.9982261 72.57874281 4.92204832 86.25 5.85546875 C88.92579633 6.03884295 91.60157024 6.22254321 94.27734375 6.40625 C100.72648612 6.84877672 107.17570858 7.2901198 113.625 7.73046875 C113.06001297 8.37573013 113.06001297 8.37573013 112.48361206 9.0340271 C109.95821143 11.94486926 107.48213663 14.85878724 105.19189453 17.95947266 C89.04221532 39.72876319 89.04221532 39.72876319 77.42871094 41.71728516 C68.44867135 42.48632542 59.36229502 40.67762162 50.54301453 39.15177917 C39.28321938 37.22312698 27.93857026 36.46507241 16.55780029 35.5880127 C10.3644434 35.10011792 4.1765618 34.55192313 -2.01171875 34.00390625 C-3.21884521 33.89763916 -4.42597168 33.79137207 -5.66967773 33.68188477 C-23.57787098 32.10128838 -41.47796965 30.43240445 -59.375 28.73046875 C-57.00091385 26.07248736 -54.55386206 24.6230926 -51.38671875 23.015625 C-50.3800415 22.49967773 -49.37336426 21.98373047 -48.33618164 21.45214844 C-47.2558667 20.90461914 -46.17555176 20.35708984 -45.0625 19.79296875 C-33.68021635 13.95624054 -22.42562565 7.91618068 -11.22485352 1.73925781 C-7.29454822 -0.40407352 -4.39473617 -0.26116108 0 0 Z " fill="#55C434" transform="translate(688.375,412.26953125)"/>
<path d="M0 0 C12.37364159 0 12.37364159 0 17.63745117 0.48730469 C18.82474319 0.59465439 20.01203522 0.70200409 21.23530579 0.81260681 C22.49183456 0.93116531 23.74836334 1.04972382 25.04296875 1.171875 C26.3992636 1.29605568 27.75560342 1.41974601 29.11198425 1.54298401 C31.98423207 1.80475409 34.85619763 2.06935938 37.72796631 2.33633423 C44.50274727 2.96587625 51.27892664 3.58008553 58.05500793 4.19544411 C60.33313311 4.40244387 62.61120817 4.60998926 64.88928223 4.81755066 C78.37937207 6.04460668 91.87515245 7.19788235 105.375 8.3125 C106.34980316 8.39326782 107.32460632 8.47403564 108.32894897 8.55725098 C111.08121125 8.78508599 113.83355235 9.01193593 116.5859375 9.23828125 C117.417267 9.30687347 118.2485965 9.3754657 119.1051178 9.44613647 C122.77630706 9.74666845 126.44735872 10.03635476 130.12207031 10.29052734 C131.90629395 10.41548584 131.90629395 10.41548584 133.7265625 10.54296875 C134.73541504 10.60895264 135.74426758 10.67493652 136.78369141 10.74291992 C139 11 139 11 140 12 C140.10183014 14.65656878 140.14072051 17.28101425 140.125 19.9375 C140.12306641 20.70570068 140.12113281 21.47390137 140.11914062 22.26538086 C140.07646234 27.89950682 139.710261 33.40669462 139 39 C135.12327711 40.84642417 132.51472701 41.15375474 128.26586914 40.6796875 C127.12278793 40.55854584 125.97970673 40.43740417 124.80198669 40.31259155 C123.55893265 40.16818634 122.3158786 40.02378113 121.03515625 39.875 C119.70867006 39.73031602 118.38205143 39.58684195 117.05531311 39.44448853 C114.21015347 39.13703471 111.36595665 38.82214138 108.52227783 38.50128174 C101.73994493 37.73637973 94.95363654 37.00801473 88.16777039 36.27525711 C85.82376383 36.02169808 83.47992929 35.76659096 81.1361084 35.51132202 C70.41100088 34.34666477 59.6802018 33.2571373 48.94140625 32.2265625 C48.22387491 32.1576757 47.50634357 32.08878891 46.76706886 32.01781464 C40.53006171 31.42006266 34.292412 30.82916044 28.05447388 30.24121094 C25.46847244 29.99723239 22.88255598 29.752351 20.29673767 29.50643921 C17.96742426 29.28499836 15.63789691 29.06579153 13.30812073 28.84927368 C12.28105515 28.75157684 11.25398956 28.65388 10.19580078 28.55322266 C9.30756622 28.46996735 8.41933167 28.38671204 7.50418091 28.30093384 C4.98361204 27.99803062 2.48940404 27.49788081 0 27 C0 18.09 0 9.18 0 0 Z " fill="#147115" transform="translate(629,441)"/>
<path d="M0 0 C3.65255638 0.14501245 7.30533435 0.27651653 10.95855713 0.40350342 C23.57392339 0.84972389 36.17830594 1.41857441 48.78033447 2.15008545 C48.40408432 2.57414169 48.02783417 2.99819794 47.6401825 3.43510437 C45.02636505 6.42546024 42.59471464 9.36180126 40.46026611 12.71478271 C37.52389453 16.87536131 34.48921409 20.05261252 29.78033447 22.15008545 C20.13556166 23.76767583 10.05097053 22.31025659 0.38824463 21.30505371 C-3.16652388 20.9488771 -6.7270231 20.66822811 -10.2880249 20.38250732 C-15.88869218 19.92464446 -21.48419577 19.42633989 -27.07855225 18.89715576 C-34.86194828 18.16440316 -42.65177236 17.55819766 -50.45013428 17.0055542 C-51.541371 16.92683578 -52.63260773 16.84811737 -53.75691223 16.76701355 C-64.90000387 15.98795226 -76.05665495 15.53127654 -87.21966553 15.15008545 C-83.80278137 8.31631714 -72.16500586 4.63354355 -65.21038818 2.16282654 C-44.94269258 -4.07777108 -20.89211181 -0.83186284 0 0 Z " fill="#56C735" transform="translate(778.2196655273438,377.84991455078125)"/>
<path d="M0 0 C3.465 -0.0825 6.93 -0.165 10.5 -0.25 C12.11358398 -0.30462402 12.11358398 -0.30462402 13.75976562 -0.36035156 C20.0515554 -0.43232407 24.77858029 0.34532941 30 4 C34.93920072 9.06917969 36.28939352 13.82664008 36.3125 20.8125 C36.1794546 28.29434716 35.59690944 33.28504922 30.25 38.875 C20.63904317 45.15908716 11.81837126 43 0 43 C0 28.81 0 14.62 0 0 Z " fill="#090F13" transform="translate(653,198)"/>
<path d="M0 0 C0.33 0 0.66 0 1 0 C1 19.14 1 38.28 1 58 C-11.87 58 -24.74 58 -38 58 C-36.38773107 54.77546213 -34.71607705 51.91333322 -32.75390625 48.90625 C-32.09003906 47.88837402 -31.42617188 46.87049805 -30.7421875 45.82177734 C-30.02289063 44.72559082 -29.30359375 43.6294043 -28.5625 42.5 C-28.19527832 41.93951965 -27.82805664 41.37903931 -27.44970703 40.80157471 C-21.6221473 31.91178424 -15.72710845 23.06760495 -9.77462769 14.26098633 C-8.92424809 13.00273318 -8.07490415 11.74377948 -7.22659302 10.48413086 C-6.04011585 8.72390301 -4.84900221 6.96691734 -3.65625 5.2109375 C-2.97369141 4.20337402 -2.29113281 3.19581055 -1.58789062 2.15771484 C-0.80188477 1.089646 -0.80188477 1.089646 0 0 Z " fill="#0C1116" transform="translate(497,414)"/>
<path d="M0 0 C0.33 0 0.66 0 1 0 C1 57.09 1 114.18 1 173 C36.97 173 72.94 173 110 173 C110 159.14 110 145.28 110 131 C89.54 131 69.08 131 48 131 C48 122.42 48 113.84 48 105 C65.16 104.67 82.32 104.34 100 104 C100.33 91.79 100.66 79.58 101 67 C101.33 67 101.66 67 102 67 C102.04935509 72.37514905 102.08569802 77.75016685 102.10986328 83.12548828 C102.11993484 84.95493873 102.13359276 86.78437303 102.15087891 88.61376953 C102.17507677 91.23994934 102.18647132 93.86591675 102.1953125 96.4921875 C102.20563507 97.31306854 102.21595764 98.13394958 102.22659302 98.97970581 C102.22699184 100.98789142 102.1224954 102.99555382 102 105 C100 107 100 107 97.86129761 107.24050903 C96.9774942 107.23606781 96.0936908 107.23162659 95.18310547 107.22705078 C94.18221893 107.22689972 93.1813324 107.22674866 92.15011597 107.22659302 C90.52506638 107.21110916 90.52506638 107.21110916 88.8671875 107.1953125 C87.76021515 107.1924826 86.6532428 107.18965271 85.51272583 107.18673706 C81.96670863 107.17551519 78.42094125 107.15040691 74.875 107.125 C72.47526406 107.1149728 70.07552417 107.1058465 67.67578125 107.09765625 C61.78375747 107.07556928 55.89192113 107.0410257 50 107 C50 113.93 50 120.86 50 128 C51.80710449 128.01981934 53.61420898 128.03963867 55.47607422 128.06005859 C61.43932724 128.127764 67.40240544 128.20453395 73.36546135 128.28752708 C76.98172018 128.3375243 80.59794932 128.38385371 84.21435547 128.421875 C87.70283089 128.45868502 91.19105986 128.50503264 94.6793251 128.55806351 C96.66128773 128.58568111 98.64338072 128.60335779 100.62545776 128.62094116 C101.82655182 128.64081085 103.02764587 128.66068054 104.26513672 128.68115234 C105.32658905 128.69447601 106.38804138 128.70779968 107.48165894 128.7215271 C110 129 110 129 112 131 C111.67 145.19 111.34 159.38 111 174 C74.37 174 37.74 174 0 174 C0 116.58 0 59.16 0 0 Z " fill="#000000" transform="translate(748,162)"/>
<path d="M0 0 C33.99 0 67.98 0 103 0 C103 13.86 103 27.72 103 42 C83.86 42 64.72 42 45 42 C45 41.67 45 41.34 45 41 C63.48 41 81.96 41 101 41 C101 28.13 101 15.26 101 2 C68 2 35 2 1 2 C1 59.09 1 116.18 1 175 C35.65 175 70.3 175 106 175 C106 175.33 106 175.66 106 176 C71.02 176 36.04 176 0 176 C0 117.92 0 59.84 0 0 Z " fill="#FEFEFC" transform="translate(750,158)"/>
<path d="M0 0 C9.89189376 -0.02312428 19.78378114 -0.04091552 29.67569637 -0.05181217 C34.2684264 -0.05704082 38.861138 -0.06413812 43.45385742 -0.07543945 C47.88233688 -0.086269 52.31079856 -0.09227698 56.73929024 -0.09487724 C58.43265628 -0.09673137 60.12602129 -0.10035175 61.81937981 -0.10573006 C64.18291232 -0.1129414 66.54637045 -0.1139909 68.90991211 -0.11352539 C69.61697296 -0.11712067 70.32403381 -0.12071594 71.05252075 -0.12442017 C75.88594784 -0.11405216 75.88594784 -0.11405216 77 1 C77.09558036 2.44213999 77.12188394 3.88894079 77.12025452 5.33424377 C77.12231651 6.73726242 77.12231651 6.73726242 77.12442017 8.16862488 C77.11902725 9.72012993 77.11902725 9.72012993 77.11352539 11.30297852 C77.11367142 12.38577087 77.11381744 13.46856323 77.1139679 14.58416748 C77.11326823 18.18243374 77.10547333 21.78064897 77.09765625 25.37890625 C77.09579226 27.86612418 77.09436827 30.35334248 77.09336853 32.84056091 C77.0899335 38.73021191 77.08204277 44.6198439 77.07201904 50.50948709 C77.05976246 57.87025374 77.05437791 65.23102264 77.04882812 72.59179688 C77.03808815 85.72787398 77.02120089 98.86393583 77 112 C77.63091553 111.99476318 78.26183105 111.98952637 78.91186523 111.98413086 C81.75373347 111.96342174 84.59558588 111.95035934 87.4375 111.9375 C88.92733398 111.92493164 88.92733398 111.92493164 90.44726562 111.91210938 C91.39150391 111.90888672 92.33574219 111.90566406 93.30859375 111.90234375 C94.18314209 111.89710693 95.05769043 111.89187012 95.95874023 111.88647461 C98 112 98 112 99 113 C99.13278951 114.48689784 99.19879374 115.97984298 99.23706055 117.47216797 C99.26346115 118.42340546 99.28986176 119.37464294 99.31706238 120.35470581 C99.35154228 121.90775925 99.35154228 121.90775925 99.38671875 123.4921875 C99.41224319 124.54906769 99.43776764 125.60594788 99.46406555 126.69485474 C99.51618199 128.93599606 99.5655956 131.17720159 99.61254883 133.41845703 C99.68703492 136.85355187 99.77769049 140.28797659 99.86914062 143.72265625 C99.91766241 145.89581133 99.96522033 148.06898819 100.01171875 150.2421875 C100.04077805 151.273508 100.06983734 152.30482849 100.09977722 153.36740112 C100.12519341 154.80371384 100.12519341 154.80371384 100.15112305 156.26904297 C100.17990791 157.53359818 100.17990791 157.53359818 100.20927429 158.82369995 C100 161 100 161 98 164 C95.93701172 164.43237305 95.93701172 164.43237305 93.4296875 164.51171875 C92.62257324 164.54483154 91.81545898 164.57794434 90.98388672 164.61206055 C89.9579541 164.63695557 88.93202148 164.66185059 87.875 164.6875 C84.61625 164.790625 81.3575 164.89375 78 165 C77.67 175.89 77.34 186.78 77 198 C76.67 198 76.34 198 76 198 C75.67 186.12 75.34 174.24 75 162 C82.59 162 90.18 162 98 162 C98 146.16 98 130.32 98 114 C90.41 114 82.82 114 75 114 C75 76.71 75 39.42 75 1 C50.25 1 25.5 1 0 1 C0 0.67 0 0.34 0 0 Z " fill="#050608" transform="translate(477,357)"/>
<path d="M0 0 C19.8 0 39.6 0 60 0 C60 14.52 60 29.04 60 44 C24.69 44 -10.62 44 -47 44 C-47 43.34 -47 42.68 -47 42 C-12.68 42 21.64 42 57 42 C57 29.13 57 16.26 57 3 C38.19 3 19.38 3 0 3 C0 2.01 0 1.02 0 0 Z " fill="#D7D8D1" transform="translate(355,291)"/>
<path d="M0 0 C0.33 0 0.66 0 1 0 C1 16.83 1 33.66 1 51 C32.35 51 63.7 51 96 51 C96 63.21 96 75.42 96 88 C114.15 88 132.3 88 151 88 C151 88.33 151 88.66 151 89 C143.71578452 89.02312916 136.4315769 89.04091801 129.14733219 89.05181217 C125.76528187 89.05703975 122.3832566 89.06413511 119.0012207 89.07543945 C115.11670223 89.08834267 111.23219403 89.09322924 107.34765625 89.09765625 C106.12788589 89.10281754 104.90811554 89.10797882 103.65138245 89.11329651 C101.96975258 89.11340981 101.96975258 89.11340981 100.25415039 89.11352539 C99.26153702 89.115746 98.26892365 89.11796661 97.24623108 89.12025452 C95 89 95 89 94 88 C93.91148471 85.40640678 93.88474055 82.83960309 93.90234375 80.24609375 C93.9037587 79.47064713 93.90517365 78.6952005 93.90663147 77.89625549 C93.91224655 75.40996506 93.92480154 72.9237634 93.9375 70.4375 C93.94251306 68.75586067 93.9470763 67.07421994 93.95117188 65.39257812 C93.96222087 61.26168434 93.97949555 57.13085724 94 53 C92.25566429 53.00333092 92.25566429 53.00333092 90.47608948 53.00672913 C79.54230632 53.02695912 68.60852694 53.04197145 57.67472935 53.05181217 C52.05292038 53.05704136 46.43112647 53.06413966 40.80932617 53.07543945 C35.38881723 53.08626706 29.9683228 53.09227656 24.54780388 53.09487724 C22.47485055 53.09673172 20.40189806 53.10035277 18.32895088 53.10573006 C15.43616107 53.1129388 12.54343204 53.11399101 9.65063477 53.11352539 C8.78461136 53.11712067 7.91858795 53.12071594 7.02632141 53.12442017 C1.11405216 53.11405216 1.11405216 53.11405216 0 52 C-0.09340434 50.37325222 -0.11745171 48.74245949 -0.11352539 47.11303711 C-0.11344986 46.07203354 -0.11337433 45.03102997 -0.11329651 43.95848083 C-0.10813522 42.8262056 -0.10297394 41.69393036 -0.09765625 40.52734375 C-0.0962413 39.37456436 -0.09482635 38.22178497 -0.09336853 37.03407288 C-0.08775005 33.33518936 -0.07519442 29.63636536 -0.0625 25.9375 C-0.05748738 23.43684983 -0.05292406 20.93619871 -0.04882812 18.43554688 C-0.03777462 12.29034412 -0.02101852 6.14517631 0 0 Z " fill="#010204" transform="translate(402,468)"/>
<path d="M0 0 C22.11 0 44.22 0 67 0 C67 0.33 67 0.66 67 1 C62.40421901 1.14831462 57.80828866 1.29018733 53.2121582 1.42724609 C51.66425816 1.47417602 50.11640147 1.52256962 48.56860352 1.57275391 C33.04605174 2.07397634 17.52885615 2.05248315 2 2 C2.00222061 3.22297791 2.00444122 4.44595581 2.00672913 5.70599365 C2.02727775 17.4088291 2.04212128 29.11166075 2.05181217 40.81451035 C2.05696228 46.82654337 2.06391062 52.83856149 2.07543945 58.85058594 C2.12726246 86.58469671 2.02991292 114.28251831 1 142 C0.67 142 0.34 142 0 142 C0 95.14 0 48.28 0 0 Z " fill="#FDFDFA" transform="translate(606,158)"/>
<path d="M0 0 C0.33 0 0.66 0 1 0 C1 15.84 1 31.68 1 48 C-6.59 48 -14.18 48 -22 48 C-22 60.21 -22 72.42 -22 85 C-39.82 85 -57.64 85 -76 85 C-76 84.67 -76 84.34 -76 84 C-58.3207984 82.96113821 -40.7019046 82.88748056 -23 83 C-23.00523682 81.91468994 -23.01047363 80.82937988 -23.01586914 79.71118164 C-23.03391836 75.69882018 -23.04543171 71.68646233 -23.05493164 67.67407227 C-23.05997204 65.93480832 -23.0668043 64.19554864 -23.07543945 62.45629883 C-23.08751792 59.96174063 -23.09323108 57.46723827 -23.09765625 54.97265625 C-23.10281754 54.19036148 -23.10797882 53.40806671 -23.11329651 52.60206604 C-23.11349226 50.73432886 -23.06199694 48.86670796 -23 47 C-20.46839639 44.46839639 -14.33521868 45.00464586 -10.91723633 44.95727539 C-9.85786865 44.96235107 -8.79850098 44.96742676 -7.70703125 44.97265625 C-6.63557861 44.976604 -5.56412598 44.98055176 -4.46020508 44.98461914 C-3.24240356 44.99223267 -3.24240356 44.99223267 -2 45 C-2.01047363 43.70787598 -2.02094727 42.41575195 -2.03173828 41.08447266 C-2.06786719 36.30243691 -2.09087451 31.52041327 -2.10986328 26.73828125 C-2.11993712 24.66632053 -2.13359666 22.59437407 -2.15087891 20.52246094 C-2.17506664 17.54879236 -2.18646908 14.5753113 -2.1953125 11.6015625 C-2.20563507 10.67131256 -2.21595764 9.74106262 -2.22659302 8.78262329 C-2.22674408 7.92188202 -2.22689514 7.06114075 -2.22705078 6.17431641 C-2.231492 5.41486725 -2.23593323 4.65541809 -2.24050903 3.87295532 C-2 2 -2 2 0 0 Z " fill="#E1E2DA" transform="translate(574,471)"/>
<path d="M0 0 C0.33 0 0.66 0 1 0 C1.04935509 5.37514905 1.08569802 10.75016685 1.10986328 16.12548828 C1.11993484 17.95493873 1.13359276 19.78437303 1.15087891 21.61376953 C1.17507677 24.23994934 1.18647132 26.86591675 1.1953125 29.4921875 C1.20563507 30.31306854 1.21595764 31.13394958 1.22659302 31.97970581 C1.22699184 33.98789142 1.1224954 35.99555382 1 38 C-1 40 -1 40 -3.13870239 40.24050903 C-4.0225058 40.23606781 -4.9063092 40.23162659 -5.81689453 40.22705078 C-6.81778107 40.22689972 -7.8186676 40.22674866 -8.84988403 40.22659302 C-10.47493362 40.21110916 -10.47493362 40.21110916 -12.1328125 40.1953125 C-13.23978485 40.1924826 -14.3467572 40.18965271 -15.48727417 40.18673706 C-19.03329137 40.17551519 -22.57905875 40.15040691 -26.125 40.125 C-28.52473594 40.1149728 -30.92447583 40.1058465 -33.32421875 40.09765625 C-39.21624253 40.07556928 -45.10807887 40.0410257 -51 40 C-51 46.93 -51 53.86 -51 61 C-47.92781664 62.02406112 -45.73987825 62.1546536 -42.51879883 62.20532227 C-41.39786331 62.22526749 -40.2769278 62.24521271 -39.12202454 62.26576233 C-37.91257675 62.28247482 -36.70312897 62.29918732 -35.45703125 62.31640625 C-34.21829758 62.33718735 -32.9795639 62.35796844 -31.70329285 62.37937927 C-28.41374744 62.43371797 -25.12417274 62.48395951 -21.83453369 62.53222656 C-18.47622186 62.58250646 -15.11799954 62.63815861 -11.75976562 62.69335938 C-5.17324841 62.80053048 1.41333584 62.90230135 8 63 C8 63.33 8 63.66 8 64 C-12.13 64 -32.26 64 -53 64 C-53 55.42 -53 46.84 -53 38 C-35.84 37.67 -18.68 37.34 -1 37 C-0.67 24.79 -0.34 12.58 0 0 Z " fill="#050709" transform="translate(849,229)"/>
<path d="M0 0 C17.16 0 34.32 0 52 0 C52 12.87 52 25.74 52 39 C41.77 38.67 31.54 38.34 21 38 C21 37.67 21 37.34 21 37 C30.57 37 40.14 37 50 37 C50 25.12 50 13.24 50 1 C33.5 1 17 1 0 1 C0 0.67 0 0.34 0 0 Z " fill="#FEFDFA" transform="translate(796,228)"/>
<path d="M0 0 C2.97 0 5.94 0 9 0 C9 12.21 9 24.42 9 37 C27.15 37 45.3 37 64 37 C64 37.33 64 37.66 64 38 C56.71578452 38.02312916 49.4315769 38.04091801 42.14733219 38.05181217 C38.76528187 38.05703975 35.3832566 38.06413511 32.0012207 38.07543945 C28.11670223 38.08834267 24.23219403 38.09322924 20.34765625 38.09765625 C19.12788589 38.10281754 17.90811554 38.10797882 16.65138245 38.11329651 C14.96975258 38.11340981 14.96975258 38.11340981 13.25415039 38.11352539 C11.76523033 38.11685631 11.76523033 38.11685631 10.24623108 38.12025452 C8 38 8 38 7 37 C6.91148471 34.40640678 6.88474055 31.83960309 6.90234375 29.24609375 C6.9037587 28.47064713 6.90517365 27.6952005 6.90663147 26.89625549 C6.91224655 24.40996506 6.92480154 21.9237634 6.9375 19.4375 C6.94251306 17.75586067 6.9470763 16.07421994 6.95117188 14.39257812 C6.96222087 10.26168434 6.97949555 6.13085724 7 2 C4.69 2 2.38 2 0 2 C0 1.34 0 0.68 0 0 Z " fill="#090B0B" transform="translate(489,519)"/>
<path d="M0 0 C0.66 0.33 1.32 0.66 2 1 C2 17.83 2 34.66 2 52 C5.96 53.65 9.92 55.3 14 57 C14.33 57.66 14.66 58.32 15 59 C3.14897053 55.75534921 3.14897053 55.75534921 0 53 C-2.23997735 47.11525604 -2.20352163 41.74554406 -2.01171875 35.5078125 C-1.98906448 34.52126678 -1.96641022 33.53472107 -1.94306946 32.51828003 C-1.89333303 30.44565181 -1.83840614 28.37314232 -1.77856445 26.30078125 C-1.68720666 23.11477 -1.61281248 19.92869382 -1.54101562 16.7421875 C-1.49057086 14.72653754 -1.43917262 12.71091117 -1.38671875 10.6953125 C-1.36373215 9.7381131 -1.34074554 8.7809137 -1.31706238 7.79470825 C-1.29066177 6.91644379 -1.26426117 6.03817932 -1.23706055 5.13330078 C-1.21548386 4.35721466 -1.19390717 3.58112854 -1.17167664 2.78152466 C-1 1 -1 1 0 0 Z " fill="#0A0A19" transform="translate(200,742)"/>
<path d="M0 0 C0 4.42913334 -2.58907306 6.53263598 -5.5625 9.625 C-6.036875 10.07875 -6.51125 10.5325 -7 11 C-7.495 11.515625 -7.99 12.03125 -8.5 12.5625 C-10 14 -10 14 -13 16 C-13.51352099 18.13093706 -13.51352099 18.13093706 -13.52416992 20.63330078 C-13.56398483 21.59414581 -13.60379974 22.55499084 -13.64482117 23.54495239 C-13.68721672 25.10438065 -13.68721672 25.10438065 -13.73046875 26.6953125 C-13.770616 27.75789276 -13.81076324 28.82047302 -13.85212708 29.91525269 C-13.97755412 33.31817417 -14.08274021 36.72138555 -14.1875 40.125 C-14.26885281 42.42843276 -14.35151816 44.73181956 -14.43554688 47.03515625 C-14.63894642 52.68965851 -14.82572055 58.34452942 -15 64 C-15.33 64 -15.66 64 -16 64 C-16.4107173 57.45925717 -16.68780937 50.92189492 -16.87890625 44.37109375 C-16.95865177 42.15108134 -17.06731253 39.93188979 -17.20703125 37.71484375 C-18.39829317 18.30428187 -18.39829317 18.30428187 -12.3671875 10.8671875 C-8.57433617 6.83795208 -4.45008163 3.2835336 0 0 Z " fill="#070A16" transform="translate(626,667)"/>
<path d="M0 0 C0.66 0 1.32 0 2 0 C1.90617464 4.6085035 1.80001753 9.21649957 1.68261719 13.82446289 C1.64442591 15.39079081 1.60955606 16.95720349 1.578125 18.52368164 C1.53225929 20.780418 1.47430231 23.03657583 1.4140625 25.29296875 C1.39673569 26.33701118 1.39673569 26.33701118 1.37905884 27.40214539 C1.21282924 32.92626754 0.04167599 36.43748601 -3 41 C-3 41.66 -3 42.32 -3 43 C-3.556875 43.0825 -4.11375 43.165 -4.6875 43.25 C-7.69714206 44.22610013 -9.62154752 45.95188814 -12 48 C-10.60366893 44.81440048 -8.95442507 42.76056155 -6.4375 40.375 C-2.00996505 36.1591767 -1.77082172 33.13742814 -1.46484375 27.1484375 C-1.42186661 26.37440582 -1.37888947 25.60037415 -1.33460999 24.80288696 C-1.19810168 22.32713056 -1.06773236 19.85109371 -0.9375 17.375 C-0.84610682 15.69789462 -0.75431497 14.02081091 -0.66210938 12.34375 C-0.43677708 8.22940402 -0.21695049 4.11479612 0 0 Z " fill="#070916" transform="translate(714,541)"/>
<path d="M0 0 C0.33 0 0.66 0 1 0 C1.09926507 5.56838851 1.17165521 11.13625604 1.21972656 16.70532227 C1.23977703 18.5976662 1.26702477 20.48994868 1.30175781 22.38208008 C1.35056652 25.11034351 1.37303442 27.83778415 1.390625 30.56640625 C1.41127014 31.40522842 1.43191528 32.2440506 1.45318604 33.10829163 C1.45576001 39.92652436 -0.41003729 43.90535505 -4.82421875 49.1796875 C-9.69165979 53.60834454 -13.39949518 55.10695262 -20 55 C-17.99699665 53.99177684 -15.99116678 52.99581227 -13.96484375 52.03515625 C-13.29582031 51.71417969 -12.62679687 51.39320313 -11.9375 51.0625 C-11.26589844 50.74410156 -10.59429688 50.42570313 -9.90234375 50.09765625 C-5.51766614 47.56768826 -2.9563125 43.61549571 -1 39 C-0.50635311 36.07768121 -0.5528607 33.24915488 -0.64453125 30.29296875 C-0.65256271 29.48636307 -0.66059418 28.67975739 -0.66886902 27.84870911 C-0.69766925 25.2942783 -0.75391424 22.74140537 -0.8125 20.1875 C-0.85502681 17.61594951 -0.89185186 15.04443313 -0.92399597 12.47273254 C-0.94568081 10.8778 -0.97435278 9.28294405 -1.01069641 7.6882782 C-1.1096108 2.2192216 -1.1096108 2.2192216 0 0 Z " fill="#050414" transform="translate(596,485)"/>
<path d="M0 0 C3.69459731 0.19970796 4.78742451 0.76444338 7.3125 3.5625 C7.869375 4.366875 8.42625 5.17125 9 6 C3.125 4.125 3.125 4.125 2 3 C0.5112814 2.91330568 -0.981445 2.89296506 -2.47265625 2.90234375 C-3.28226807 2.90484131 -4.09187988 2.90733887 -4.92602539 2.90991211 C-5.96106201 2.91901611 -6.99609863 2.92812012 -8.0625 2.9375 C-11.341875 2.958125 -14.62125 2.97875 -18 3 C-18 14.88 -18 26.76 -18 39 C-18.33 39 -18.66 39 -19 39 C-19 26.79 -19 14.58 -19 2 C-13.06 1.67 -7.12 1.34 -1 1 C-0.67 0.67 -0.34 0.34 0 0 Z " fill="#13191D" transform="translate(673,198)"/>
<path d="M0 0 C-1.28913487 0.67154933 -2.58140204 1.33708859 -3.875 2 C-4.59429688 2.37125 -5.31359375 2.7425 -6.0546875 3.125 C-8 4 -8 4 -10 4 C-9.65213292 5.97536745 -9.65213292 5.97536745 -9 8 C-8.34 8.33 -7.68 8.66 -7 9 C-14.92 9.495 -14.92 9.495 -23 10 C-19.45542983 6.45542983 -15.98738716 4.84761003 -11.5 2.75 C-10.72785156 2.37359375 -9.95570313 1.9971875 -9.16015625 1.609375 C-8.41636719 1.25875 -7.67257812 0.908125 -6.90625 0.546875 C-6.22884766 0.22557617 -5.55144531 -0.09572266 -4.85351562 -0.42675781 C-3 -1 -3 -1 0 0 Z " fill="#5CD237" transform="translate(717,382)"/>
<path d="M0 0 C0.721875 0.00193359 1.44375 0.00386719 2.1875 0.00585938 C6.99126696 0.04487914 11.62945446 0.33407574 16.375 1.125 C16.375 1.785 16.375 2.445 16.375 3.125 C12.60423111 3.18299124 8.83357666 3.21859306 5.0625 3.25 C3.99064453 3.26675781 2.91878906 3.28351563 1.81445312 3.30078125 C0.78642578 3.30722656 -0.24160156 3.31367188 -1.30078125 3.3203125 C-2.24864502 3.33078613 -3.19650879 3.34125977 -4.1730957 3.35205078 C-6.625 3.125 -6.625 3.125 -9.625 1.125 C-6.56037675 -0.40731162 -3.35920077 -0.02122239 0 0 Z " fill="#E6E7E1" transform="translate(502.625,153.875)"/>
<path d="M0 0 C0 4.1461549 -1.78045025 5.63623779 -4.3125 8.875 C-7.60943926 13.10000857 -7.60943926 13.10000857 -10.53125 17.58203125 C-12.17233748 20.28371516 -14.06113794 22.47698758 -16.1875 24.8125 C-16.90292969 25.60269531 -17.61835937 26.39289062 -18.35546875 27.20703125 C-18.89816406 27.79871094 -19.44085937 28.39039063 -20 29 C-20.33 28.34 -20.66 27.68 -21 27 C-20.39414062 26.21238281 -19.78828125 25.42476562 -19.1640625 24.61328125 C-18.76372803 24.09282227 -18.36339355 23.57236328 -17.95092773 23.03613281 C-17.05990865 21.87785722 -16.16879388 20.71965523 -15.27758789 19.56152344 C-12.89766806 16.46850493 -10.51939591 13.37424585 -8.14453125 10.27734375 C-7.46366455 9.39018677 -7.46366455 9.39018677 -6.76904297 8.48510742 C-5.89118272 7.34118502 -5.01389066 6.19682634 -4.13720703 5.05200195 C-1.11243241 1.11243241 -1.11243241 1.11243241 0 0 Z " fill="#090818" transform="translate(630,829)"/>
<path d="M0 0 C0.33 0.66 0.66 1.32 1 2 C0.01443018 4.25376487 -1.02740164 6.37418733 -2.18359375 8.5390625 C-2.51794937 9.17991791 -2.85230499 9.82077332 -3.1967926 10.48104858 C-4.26958141 12.53303714 -5.35337051 14.57898423 -6.4375 16.625 C-7.16544387 18.01263795 -7.89266699 19.40065426 -8.61914062 20.7890625 C-10.40441736 24.19715982 -12.19958291 27.59987839 -14 31 C-14.66 31 -15.32 31 -16 31 C-15.52309829 26.70788464 -14.97916068 24.97916068 -12 22 C-11.01371583 19.96922316 -11.01371583 19.96922316 -10.3125 17.8125 C-10.06113281 17.09707031 -9.80976562 16.38164063 -9.55078125 15.64453125 C-9.27814453 14.83048828 -9.27814453 14.83048828 -9 14 C-8.34 14 -7.68 14 -7 14 C-6.773125 13.175 -6.54625 12.35 -6.3125 11.5 C-4.72573768 7.26863382 -2.49251763 3.74828987 0 0 Z " fill="#0A0B18" transform="translate(587,841)"/>
<path d="M0 0 C0.99 0.33 1.98 0.66 3 1 C2.01 1.66 1.02 2.32 0 3 C-0.28568624 6.20191205 -0.33956882 9.29303011 -0.26367188 12.50195312 C-0.30078125 14.49609375 -0.30078125 14.49609375 -1 18 C-3.85546875 20.03515625 -3.85546875 20.03515625 -7 21 C-7.99 20.67 -8.98 20.34 -10 20 C-8.35 19.34 -6.7 18.68 -5 18 C-4.89042969 16.86820312 -4.78085937 15.73640625 -4.66796875 14.5703125 C-4.50852939 13.08846436 -4.34833382 11.60669744 -4.1875 10.125 C-4.11724609 9.37863281 -4.04699219 8.63226563 -3.97460938 7.86328125 C-3.75289777 5.89448223 -3.38420661 3.94363342 -3 2 C-2.01 1.34 -1.02 0.68 0 0 Z " fill="#080B16" transform="translate(691,390)"/>
<path d="M0 0 C0.33 0 0.66 0 1 0 C1.11798604 3.77056169 1.18783864 7.54063765 1.25 11.3125 C1.28351562 12.36501953 1.31703125 13.41753906 1.3515625 14.50195312 C1.44296067 21.9280544 0.43947282 28.33226394 -3 35 C-3.99 35.495 -3.99 35.495 -5 36 C-4.01 29.73 -3.02 23.46 -2 17 C-1.67 17 -1.34 17 -1 17 C-0.67 11.39 -0.34 5.78 0 0 Z " fill="#EAECE3" transform="translate(542,235)"/>
<path d="M0 0 C0 3.96018245 -1.18721244 6.5039097 -3 10 C-5.1875 10.9375 -5.1875 10.9375 -7 11 C-7.09152344 11.59296875 -7.18304687 12.1859375 -7.27734375 12.796875 C-8.17232113 15.52534657 -9.33906301 16.47125041 -11.5625 18.25 C-12.20316406 18.77078125 -12.84382812 19.2915625 -13.50390625 19.828125 C-13.99761719 20.21484375 -14.49132812 20.6015625 -15 21 C-13.57506007 16.77114601 -11.49615034 13.89577914 -8.625 10.5 C-7.85414063 9.5821875 -7.08328125 8.664375 -6.2890625 7.71875 C-5.53367187 6.8215625 -4.77828125 5.924375 -4 5 C-2.66165935 3.33735155 -1.32667384 1.67197251 0 0 Z " fill="#090917" transform="translate(827,574)"/>
<path d="M0 0 C1.02480469 0.00644531 2.04960938 0.01289063 3.10546875 0.01953125 C4.16894531 0.03628906 5.23242188 0.05304688 6.328125 0.0703125 C7.94654297 0.08384766 7.94654297 0.08384766 9.59765625 0.09765625 C12.25803778 0.12119945 14.91796836 0.15408451 17.578125 0.1953125 C17.578125 0.5253125 17.578125 0.8553125 17.578125 1.1953125 C15.928125 1.5253125 14.278125 1.8553125 12.578125 2.1953125 C12.578125 2.5253125 12.578125 2.8553125 12.578125 3.1953125 C9.84889112 3.2223942 7.11992863 3.24219097 4.390625 3.2578125 C3.62169922 3.26619141 2.85277344 3.27457031 2.06054688 3.28320312 C-1.90714289 3.30023184 -5.54758734 3.18135365 -9.421875 2.1953125 C-6.16433576 0.25821612 -3.76577572 -0.04184195 0 0 Z " fill="#4AAE30" transform="translate(764.421875,377.8046875)"/>
<path d="M0 0 C0 4.0467232 -1.67482064 5.74474889 -4 9 C-4.53625 9.763125 -5.0725 10.52625 -5.625 11.3125 C-7 13 -7 13 -9 14 C-9.268125 14.598125 -9.53625 15.19625 -9.8125 15.8125 C-11.35393541 18.65198628 -13.42404696 20.10192934 -16 22 C-14.58050389 17.80223879 -12.536141 14.93778052 -9.6875 11.5625 C-8.48867188 10.13164063 -8.48867188 10.13164063 -7.265625 8.671875 C-6.51796875 7.79015625 -5.7703125 6.9084375 -5 6 C-3.97803856 4.77177111 -2.95692226 3.54283721 -1.9375 2.3125 C-1.298125 1.549375 -0.65875 0.78625 0 0 Z " fill="#0A0917" transform="translate(750,674)"/>
<path d="M0 0 C0 4.89427603 -3.05118333 8.23881952 -6 12 C-8.23597536 14.19580814 -10.52242881 16.06749447 -13 18 C-13.66 17.67 -14.32 17.34 -15 17 C-14.41992188 16.35933594 -13.83984375 15.71867188 -13.2421875 15.05859375 C-8.75905025 10.09459194 -4.32554972 5.10193044 0 0 Z " fill="#070C12" transform="translate(751,499)"/>
<path d="M0 0 C0 3.98279873 -1.50033467 4.94485349 -4 8 C-4.66530681 9.15567238 -5.31063653 10.32303186 -5.9375 11.5 C-7.82704387 14.89969113 -10.00964538 17.46969994 -13 20 C-13.99 20 -14.98 20 -16 20 C-10.66666667 13.33333333 -5.33333333 6.66666667 0 0 Z " fill="#090817" transform="translate(661,789)"/>
<path d="M0 0 C0.33 0.66 0.66 1.32 1 2 C0.34 2.66 -0.32 3.32 -1 4 C-1 4.66 -1 5.32 -1 6 C1.31 6.66 3.62 7.32 6 8 C6 8.33 6 8.66 6 9 C3.87436897 8.88623383 1.7494739 8.75864369 -0.375 8.625 C-1.55835938 8.55539062 -2.74171875 8.48578125 -3.9609375 8.4140625 C-7 8 -7 8 -9 6 C-6.03 4.02 -3.06 2.04 0 0 Z " fill="#60D639" transform="translate(384,628)"/>
<path d="M0 0 C0.66 0.33 1.32 0.66 2 1 C-8.37357631 14.6332574 -8.37357631 14.6332574 -14 21 C-14 17.34267153 -13.17263532 16.58340696 -10.9375 13.76953125 C-10.30585937 12.96708984 -9.67421875 12.16464844 -9.0234375 11.33789062 C-8.02183594 10.08782227 -8.02183594 10.08782227 -7 8.8125 C-6.33226562 7.96751953 -5.66453125 7.12253906 -4.9765625 6.25195312 C-3.32409567 4.16276292 -1.66508275 2.07913923 0 0 Z " fill="#090618" transform="translate(732,697)"/>
<path d="M0 0 C-2.5924648 1.87097485 -5.200649 3.71870837 -7.8125 5.5625 C-8.55048828 6.09552734 -9.28847656 6.62855469 -10.04882812 7.17773438 C-10.76103516 7.67724609 -11.47324219 8.17675781 -12.20703125 8.69140625 C-12.8616333 9.15748291 -13.51623535 9.62355957 -14.19067383 10.10375977 C-16 11 -16 11 -19 10 C-18.34 10 -17.68 10 -17 10 C-17 9.34 -17 8.68 -17 8 C-15.9275 7.4225 -14.855 6.845 -13.75 6.25 C-11.36314992 4.90049322 -9.77858337 3.77858337 -7.8125 1.8125 C-5.26540577 -0.73459423 -3.30547784 -1.65273892 0 0 Z " fill="#090A16" transform="translate(377,633)"/>
<path d="M0 0 C1.92875972 0.43230821 3.85633323 0.87817152 5.7578125 1.41796875 C9.14441286 2.29706884 12.52424656 2.62759785 16 3 C16 3.99 16 4.98 16 6 C9.69632197 5.41632611 4.01339937 3.95928381 -2 2 C-1.34 1.34 -0.68 0.68 0 0 Z " fill="#EAEAE5" transform="translate(184,330)"/>
<path d="M0 0 C0 3.63320695 -0.73946263 4.25506176 -3 7 C-3.598125 7.825 -4.19625 8.65 -4.8125 9.5 C-7.26001817 12.29716362 -9.84393002 14.0633207 -13 16 C-11.3383196 11.87582937 -8.37661982 8.93445961 -5.375 5.75 C-4.859375 5.19570313 -4.34375 4.64140625 -3.8125 4.0703125 C-2.54574965 2.7097288 -1.27342185 1.35434163 0 0 Z " fill="#050912" transform="translate(540,816)"/>
<path d="M0 0 C0 3.77110589 -1.13327343 4.9680326 -3.3125 8 C-3.92738281 8.86625 -4.54226563 9.7325 -5.17578125 10.625 C-6.68648007 12.59181988 -8.19346467 14.31019465 -10 16 C-10.66 15.67 -11.32 15.34 -12 15 C-10.18829771 12.68687105 -8.37567861 10.37447123 -6.5625 8.0625 C-6.04623047 7.40314453 -5.52996094 6.74378906 -4.99804688 6.06445312 C-4.50498047 5.43603516 -4.01191406 4.80761719 -3.50390625 4.16015625 C-3.04830322 3.57886963 -2.5927002 2.99758301 -2.12329102 2.39868164 C-1 1 -1 1 0 0 Z " fill="#090917" transform="translate(763,657)"/>
<path d="M0 0 C7.09434233 -0.09733092 13.98194143 -0.10087193 21 1 C21 1.33 21 1.66 21 2 C18.62556577 2.22354724 16.25174905 2.429163 13.875 2.625 C13.20984375 2.68945312 12.5446875 2.75390625 11.859375 2.8203125 C7.41244943 3.16909098 4.12269819 2.68247185 0 1 C0 0.67 0 0.34 0 0 Z " fill="#0B6410" transform="translate(669,445)"/>
<path d="M0 0 C0 4.05869456 -1.02186309 6.01574974 -3.875 8.88671875 C-4.57625 9.48097656 -5.2775 10.07523438 -6 10.6875 C-6.70125 11.28949219 -7.4025 11.89148438 -8.125 12.51171875 C-10 14 -10 14 -12 15 C-10.38462556 11.10082032 -7.72075127 8.28706228 -4.875 5.25 C-4.40707031 4.74339844 -3.93914063 4.23679687 -3.45703125 3.71484375 C-2.30873459 2.47280859 -1.15491328 1.23588506 0 0 Z " fill="#050911" transform="translate(585,765)"/>
<path d="M0 0 C0.66 0.33 1.32 0.66 2 1 C0.96508351 3.82249951 0.30084735 4.83374226 -2.375 6.3125 C-5 7 -5 7 -9 6 C-6.03 4.02 -3.06 2.04 0 0 Z " fill="#5ED537" transform="translate(453,584)"/>
<path d="M0 0 C0 0.99 0 1.98 0 3 C-4.11536133 7.11536133 -7.35238619 8.75752496 -13 10 C-9.28249221 5.79759989 -4.68339021 3.00217321 0 0 Z " fill="#198417" transform="translate(374,634)"/>
<path d="M0 0 C0.33 0.99 0.66 1.98 1 3 C-1.97 6.3 -4.94 9.6 -8 13 C-8 9.00717059 -6.52191924 7.84668408 -4 4.8125 C-3.2575 3.91144531 -2.515 3.01039063 -1.75 2.08203125 C-1.1725 1.39496094 -0.595 0.70789063 0 0 Z " fill="#090A18" transform="translate(712,723)"/>
<path d="M0 0 C4.29 0 8.58 0 13 0 C12.67 0.99 12.34 1.98 12 3 C8.04 3 4.08 3 0 3 C0 2.01 0 1.02 0 0 Z " fill="#1B2023" transform="translate(499,293)"/>
<path d="M0 0 C3.10190545 4.65285818 4.33846504 9.41532676 4 15 C3.01 14.34 2.02 13.68 1 13 C0.67719017 10.99857903 0.36343942 8.99229419 0.1875 6.97265625 C0.04234375 4.90239846 0.04234375 4.90239846 -0.625 2.5625 C-0.74875 2.046875 -0.8725 1.53125 -1 1 C-0.67 0.67 -0.34 0.34 0 0 Z " fill="#EAEBE8" transform="translate(583,209)"/>
<path d="M0 0 C0 0.66 0 1.32 0 2 C1.32 2.33 2.64 2.66 4 3 C-7.385 2.505 -7.385 2.505 -19 2 C-19 1.67 -19 1.34 -19 1 C-16.20837429 0.83262201 -13.41670379 0.66606598 -10.625 0.5 C-9.8309375 0.45230469 -9.036875 0.40460938 -8.21875 0.35546875 C-2.2265625 0 -2.2265625 0 0 0 Z " fill="#E9E9DE" transform="translate(516,335)"/>
<path d="M0 0 C0.66 0.66 1.32 1.32 2 2 C-1.3 5.63 -4.6 9.26 -8 13 C-8 9.00717059 -6.52191924 7.84668408 -4 4.8125 C-3.2575 3.91144531 -2.515 3.01039063 -1.75 2.08203125 C-1.1725 1.39496094 -0.595 0.70789063 0 0 Z " fill="#0A0617" transform="translate(644,811)"/>
<path d="M0 0 C0.33 0.66 0.66 1.32 1 2 C-0.07674702 4.28258633 -1.19546116 6.4356434 -2.4375 8.625 C-2.77587891 9.23601563 -3.11425781 9.84703125 -3.46289062 10.4765625 C-4.30146192 11.988353 -5.14982577 13.49470399 -6 15 C-6.66 15 -7.32 15 -8 15 C-8 12 -8 12 -6.66796875 10.60546875 C-6.11753906 10.07566406 -5.56710937 9.54585937 -5 9 C-4.0585702 7.46454126 -3.16365136 5.89978226 -2.3125 4.3125 C-1.87550781 3.50425781 -1.43851563 2.69601562 -0.98828125 1.86328125 C-0.66214844 1.24839844 -0.33601562 0.63351562 0 0 Z " fill="#0B0918" transform="translate(735,561)"/>
<path d="M0 0 C0.66 0.33 1.32 0.66 2 1 C-2.05387741 5.81397943 -5.0217942 6.88541926 -11 8 C-7.71644638 4.32241995 -4.37221763 2.18610882 0 0 Z " fill="#63DE3A" transform="translate(288,689)"/>
<path d="M0 0 C3.375 -0.1875 3.375 -0.1875 7 0 C7.66 0.99 8.32 1.98 9 3 C5.04 3 1.08 3 -3 3 C-2.01 2.67 -1.02 2.34 0 2 C0 1.34 0 0.68 0 0 Z " fill="#F0F0E6" transform="translate(673,158)"/>
<path d="M0 0 C4.95 0 9.9 0 15 0 C14.01 1.485 14.01 1.485 13 3 C8.71 2.34 4.42 1.68 0 1 C0 0.67 0 0.34 0 0 Z " fill="#61D63A" transform="translate(787,420)"/>
<path d="M0 0 C-3.28463659 2.18975773 -6.20696275 2.99806563 -10 4 C-10 3.01 -10 2.02 -10 1 C-3.71428571 -1.42857143 -3.71428571 -1.42857143 0 0 Z " fill="#ECECE8" transform="translate(540,331)"/>
<path d="M0 0 C2.97 0.33 5.94 0.66 9 1 C7 3 7 3 3.375 3.125 C2.26125 3.08375 1.1475 3.0425 0 3 C0 2.01 0 1.02 0 0 Z " fill="#E8E9E2" transform="translate(684,159)"/>
<path d="M0 0 C0.33 0.99 0.66 1.98 1 3 C-0.43359375 5.04296875 -0.43359375 5.04296875 -2.4375 7.1875 C-3.09621094 7.90292969 -3.75492188 8.61835937 -4.43359375 9.35546875 C-4.95050781 9.89816406 -5.46742188 10.44085937 -6 11 C-6.66 10.67 -7.32 10.34 -8 10 C-5.36 6.7 -2.72 3.4 0 0 Z " fill="#090618" transform="translate(583,890)"/>
<path d="M0 0 C0.33 0.99 0.66 1.98 1 3 C-1.31 5.31 -3.62 7.62 -6 10 C-6 6.41087588 -5.33563446 5.89142971 -3 3.3125 C-2.443125 2.68988281 -1.88625 2.06726563 -1.3125 1.42578125 C-0.879375 0.95527344 -0.44625 0.48476563 0 0 Z " fill="#090A17" transform="translate(682,762)"/>
<path d="M0 0 C0.66 0.33 1.32 0.66 2 1 C2 1.99 2 2.98 2 4 C1.443125 4.0825 0.88625 4.165 0.3125 4.25 C-2.69714206 5.22610013 -4.62154752 6.95188814 -7 9 C-5.44499019 5.18315774 -2.96404505 2.80804268 0 0 Z " fill="#040612" transform="translate(709,580)"/>
<path d="M0 0 C3.43950364 0.61198376 5.51564485 1.92058847 8.25 4.0625 C8.95640625 4.61035156 9.6628125 5.15820312 10.390625 5.72265625 C11.18726563 6.35494141 11.18726563 6.35494141 12 7 C11.34 7.66 10.68 8.32 10 9 C9.67 8.01 9.34 7.02 9 6 C7.68596724 5.29605388 6.3479743 4.63654342 5 4 C3.31110128 2.6949419 1.6396721 1.36639342 0 0 Z " fill="#ECECEA" transform="translate(707,167)"/>
<path d="M0 0 C0.33 0.66 0.66 1.32 1 2 C0 4 0 4 -2.06640625 4.8515625 C-3.30197266 5.23441406 -3.30197266 5.23441406 -4.5625 5.625 C-5.38878906 5.88539063 -6.21507812 6.14578125 -7.06640625 6.4140625 C-7.70449219 6.60742188 -8.34257812 6.80078125 -9 7 C-6.24479785 4.04070881 -3.53372712 1.96318174 0 0 Z " fill="#62DC38" transform="translate(221,731)"/>
<path d="M0 0 C-2.97 1.65 -5.94 3.3 -9 5 C-9.33 4.01 -9.66 3.02 -10 2 C-3.375 -1.125 -3.375 -1.125 0 0 Z " fill="#EEEFEA" transform="translate(554,324)"/>
<path d="M0 0 C2.67927341 4.01891012 2.15601248 6.24161923 2 11 C-0.18975773 7.71536341 -0.99806563 4.79303725 -2 1 C-1.34 0.67 -0.68 0.34 0 0 Z " fill="#EEEFE9" transform="translate(537,216)"/>
<path d="M0 0 C0 0.66 0 1.32 0 2 C-0.66 2 -1.32 2 -2 2 C-2.33 2.99 -2.66 3.98 -3 5 C-4.4375 6.6875 -4.4375 6.6875 -6 8 C-6.66 8 -7.32 8 -8 8 C-6.48291727 4.46014029 -4.24676932 0 0 0 Z " fill="#050911" transform="translate(595,756)"/>
<path d="M0 0 C5.75 1.875 5.75 1.875 8 3 C7.67 3.99 7.34 4.98 7 6 C3.535 4.02 3.535 4.02 0 2 C0 1.34 0 0.68 0 0 Z " fill="#EFEEEA" transform="translate(273,162)"/>
<path d="M0 0 C0.33 0.99 0.66 1.98 1 3 C-1.31 4.98 -3.62 6.96 -6 9 C-4.25618453 5.51236907 -2.47193291 2.96631949 0 0 Z " fill="#090918" transform="translate(702,736)"/>
<path d="M0 0 C-1.09445838 0.86657116 -2.20097781 1.71792724 -3.3125 2.5625 C-3.92738281 3.03816406 -4.54226563 3.51382813 -5.17578125 4.00390625 C-5.77777344 4.33261719 -6.37976563 4.66132812 -7 5 C-7.99 4.67 -8.98 4.34 -10 4 C-7.39928297 0.98864344 -3.94054294 -1.97027147 0 0 Z " fill="#060A13" transform="translate(409,612)"/>
<path d="M0 0 C3.91402949 1.26941497 5.79072873 2.51167694 8 6 C5 6 5 6 3 5 C3 4.01 3 3.02 3 2 C2.01 1.67 1.02 1.34 0 1 C0 0.67 0 0.34 0 0 Z " fill="#151718" transform="translate(522,203)"/>
<path d="M0 0 C0 1.66666667 0 3.33333333 0 5 C-1.65 5.33 -3.3 5.66 -5 6 C-5 5.01 -5 4.02 -5 3 C-2.5 1.3125 -2.5 1.3125 0 0 Z " fill="#EAEAE3" transform="translate(463,164)"/>
<path d="M0 0 C0.33 0.66 0.66 1.32 1 2 C-0.98 4.31 -2.96 6.62 -5 9 C-5 4.61031544 -2.87194899 3.23094261 0 0 Z " fill="#090616" transform="translate(574,902)"/>
<path d="M0 0 C0.66 0.33 1.32 0.66 2 1 C-0.83430453 4.2542015 -2.68607774 5.5206753 -7 6 C-2.25 1.125 -2.25 1.125 0 0 Z " fill="#060D12" transform="translate(664,418)"/>
<path d="M0 0 C2.95409701 1.37154504 5.44008376 2.98863724 8 5 C7.67 5.99 7.34 6.98 7 8 C4.35247996 5.42215154 2.05567935 3.08351902 0 0 Z " fill="#0A0C0D" transform="translate(716,171)"/>
</svg>
